<?xml version="1.0" encoding="utf-8"?>
<!-- Generator: Adobe Illustrator 20.0.0, SVG Export Plug-In . SVG Version: 6.00 Build 0)  -->
<svg version="1.1" id="Layer_1" xmlns="http://www.w3.org/2000/svg" xmlns:xlink="http://www.w3.org/1999/xlink" x="0px" y="0px"
	 viewBox="0 0 120.9 75.5" style="enable-background:new 0 0 120.9 75.5;" xml:space="preserve">
<style type="text/css">
	.st0{fill:#0044FF;}
	.st1{fill:#43CEA2;}
	.st2{fill:#FFFFFF;}
	.st3{fill:#C252DD;}
	.st4{fill:#F4C33B;}
	.st5{fill:#D7D9E2;}
</style>
<path class="st0" d="M98.1,69.4H22.9c-3.4,0-6.1-2.8-6.1-6.2V12.9c0-3.5,2.7-6.2,6.1-6.2h75.2c3.4,0,6.1,2.8,6.1,6.2v50.3
	C104,66.5,101.4,69.4,98.1,69.4z"/>
<path class="st0" d="M95.4,66.3H25.5c-3.1,0-5.6-2.5-5.6-5.6V15.1c0-3.1,2.5-5.6,5.6-5.6h69.9c3.1,0,5.6,2.5,5.6,5.6v45.5
	C101.1,63.7,98.6,66.3,95.4,66.3z"/>
<title>ThanQ-Icon</title>
<path class="st1" d="M25.1,9.5h11.6v56.8H25.1c-3,0-5.3-2.4-5.3-5.3V14.8C19.8,11.8,22.2,9.5,25.1,9.5z"/>
<g>
	<path class="st2" d="M43.1,14.9h15.7c0.6,0,1,0.6,1,1l0,0c0,0.6-0.6,1-1,1H43.1c-0.6,0-1-0.6-1-1l0,0C42,15.4,42.4,14.9,43.1,14.9z
		"/>
	<path class="st2" d="M48.6,20.6h15.7c0.6,0,1,0.6,1,1l0,0c0,0.6-0.6,1-1,1H48.6c-0.6,0-1-0.6-1-1l0,0
		C47.5,20.9,48.1,20.6,48.6,20.6z"/>
	<path class="st2" d="M52.8,26h11.5c0.6,0,1,0.6,1,1l0,0c0,0.6-0.6,1-1,1H52.8c-0.6,0-1-0.6-1-1l0,0C51.7,26.5,52.2,26,52.8,26z"/>
	<path class="st2" d="M43.1,31.9h15.7c0.6,0,1,0.6,1,1l0,0c0,0.6-0.6,1-1,1H43.1c-0.6,0-1-0.6-1-1l0,0C42,32.4,42.4,31.9,43.1,31.9z
		"/>
	<path class="st2" d="M48.6,37.5h13.6c0.6,0,1,0.6,1,1l0,0c0,0.6-0.6,1-1,1H48.6c-0.6,0-1-0.6-1-1l0,0C47.5,38,48.1,37.5,48.6,37.5z
		"/>
	<path class="st1" d="M48.6,43.1h7.5c0.6,0,1,0.6,1,1l0,0c0,0.6-0.6,1-1,1h-7.5c-0.6,0-1-0.6-1-1l0,0C47.5,43.4,48.1,43.1,48.6,43.1
		z"/>
	<path class="st3" d="M68.3,20.6h7.5c0.6,0,1,0.6,1,1l0,0c0,0.6-0.6,1-1,1h-7.5c-0.6,0-1-0.6-1-1l0,0C67.2,20.9,67.8,20.6,68.3,20.6
		z"/>
	<path class="st4" d="M68.3,26h7.5c0.6,0,1,0.6,1,1l0,0c0,0.6-0.6,1-1,1h-7.5c-0.6,0-1-0.6-1-1l0,0C67.3,26.5,67.8,26,68.3,26z"/>
	<path class="st1" d="M79.9,26h3.8c0.6,0,1,0.6,1,1l0,0c0,0.6-0.6,1-1,1h-3.8c-0.6,0-1-0.6-1-1l0,0C78.8,26.5,79.2,26,79.9,26z"/>
	<path class="st1" d="M79.9,26h3.8c0.6,0,1,0.6,1,1l0,0c0,0.6-0.6,1-1,1h-3.8c-0.6,0-1-0.6-1-1l0,0C78.8,26.5,79.2,26,79.9,26z"/>
	<path class="st3" d="M62.4,32.1h3.8c0.6,0,1,0.6,1,1l0,0c0,0.6-0.6,1-1,1h-3.8c-0.6,0-1-0.6-1-1l0,0C61.5,32.6,61.8,32.1,62.4,32.1
		z"/>
	<path class="st1" d="M73.7,58.3h4.1c0.6,0,1,0.6,1,1l0,0c0,0.6-0.6,1-1,1h-4.1c-0.6,0-1-0.6-1-1l0,0C72.6,58.6,73.1,58.3,73.7,58.3
		z"/>
	<path class="st3" d="M82.6,58.3h4.1c0.6,0,1,0.6,1,1l0,0c0,0.6-0.6,1-1,1h-4.1c-0.6,0-1-0.6-1-1l0,0C81.5,58.6,82.1,58.3,82.6,58.3
		z"/>
	<path class="st4" d="M91.5,58.3h4.1c0.6,0,1,0.6,1,1l0,0c0,0.6-0.6,1-1,1h-4.1c-0.6,0-1-0.6-1-1l0,0C90.5,58.6,90.9,58.3,91.5,58.3
		z"/>
	<path class="st3" d="M44.8,53h4.1c0.6,0,1,0.6,1,1l0,0c0,0.6-0.6,1-1,1h-4.1c-0.6,0-1-0.6-1-1l0,0C43.7,53.5,44.3,53,44.8,53z"/>
	<path class="st4" d="M72.4,53.4h4c0.6,0,1,0.6,1,1l0,0c0,0.6-0.6,1-1,1h-4.1c-0.6,0-1-0.6-1-1l0,0C71.3,53.8,71.7,53.4,72.4,53.4z"
		/>
	<path class="st4" d="M68.3,47.8h7.5c0.6,0,1,0.6,1,1l0,0c0,0.6-0.6,1-1,1h-7.5c-0.6,0-1-0.6-1-1l0,0C67.2,48.2,67.8,47.8,68.3,47.8
		z"/>
	<path class="st3" d="M79.7,43.1h7.8c0.6,0,0.8,0.5,0.8,0.8v0.4c0,0.6-0.5,0.8-0.8,0.8h-7.8c-0.6,0-0.8-0.5-0.8-0.8v-0.4
		C78.8,43.3,79.1,43.1,79.7,43.1z"/>
	<path class="st4" d="M62.1,58.3h7.5c0.6,0,1,0.6,1,1l0,0c0,0.6-0.6,1-1,1h-7.5c-0.6,0-1-0.6-1-1l0,0C61.1,58.6,61.6,58.3,62.1,58.3
		z"/>
	<path class="st2" d="M48.6,47.8h15.7c0.6,0,1,0.6,1,1l0,0c0,0.6-0.6,1-1,1H48.6c-0.6,0-1-0.6-1-1l0,0
		C47.5,48.2,48.1,47.8,48.6,47.8z"/>
	<path class="st2" d="M60.1,43.1h15.7c0.6,0,1,0.6,1,1l0,0c0,0.6-0.6,1-1,1H60.1c-0.6,0-1-0.6-1-1l0,0
		C59.2,43.4,59.5,43.1,60.1,43.1z"/>
	<path class="st2" d="M52.8,53.2h15.7c0.6,0,1,0.6,1,1l0,0c0,0.6-0.6,1-1,1H52.8c-0.6,0-1-0.6-1-1l0,0
		C51.7,53.8,52.2,53.2,52.8,53.2z"/>
	<path class="st2" d="M42.3,58.3H58c0.6,0,1,0.6,1,1l0,0c0,0.6-0.6,1-1,1H42.3c-0.6,0-1-0.6-1-1l0,0C41.3,58.6,41.8,58.3,42.3,58.3z
		"/>
	<path class="st4" d="M62.4,15.2h7.5c0.6,0,1,0.6,1,1l0,0c0,0.6-0.6,1-1,1h-7.5c-0.6,0-1-0.6-1-1l0,0C61.5,15.7,61.8,15.2,62.4,15.2
		z"/>
	<path class="st1" d="M70.6,32.1h7.5c0.6,0,1,0.6,1,1l0,0c0,0.6-0.6,1-1,1h-7.5c-0.6,0-1-0.6-1-1l0,0C69.7,32.6,70,32.1,70.6,32.1z"
		/>
	<path class="st2" d="M24.7,15h7.5c0.6,0,1,0.6,1,1l0,0c0,0.6-0.6,1-1,1h-7.5c-0.6,0-1-0.6-1-1l0,0C23.6,15.5,24.2,15,24.7,15z"/>
	<path class="st2" d="M24.7,19.9h7.5c0.6,0,1,0.6,1,1l0,0c0,0.6-0.6,1-1,1h-7.5c-0.6,0-1-0.6-1-1l0,0C23.6,20.4,24.2,19.9,24.7,19.9
		z"/>
	<path class="st2" d="M24.7,24.8h7.5c0.6,0,1,0.6,1,1l0,0c0,0.6-0.6,1-1,1h-7.5c-0.6,0-1-0.6-1-1l0,0C23.6,25.3,24.2,24.8,24.7,24.8
		z"/>
	<path class="st2" d="M24.7,29.8h7.5c0.6,0,1,0.6,1,1l0,0c0,0.6-0.6,1-1,1h-7.5c-0.6,0-1-0.6-1-1l0,0C23.6,30.2,24.2,29.8,24.7,29.8
		z"/>
	<path class="st1" d="M68.3,47.8h7.5c0.6,0,1,0.6,1,1l0,0c0,0.6-0.6,1-1,1h-7.5c-0.6,0-1-0.6-1-1l0,0C67.2,48.2,67.8,47.8,68.3,47.8
		z"/>
</g>
<g id="table">
	<path class="st5" d="M2.5,69.6H118c1,0,1.8,0.7,1.8,1.7l0,0l0,0c0,1-0.8,1.7-1.8,1.7l0,0H2.5c-1,0-1.8-0.7-1.8-1.7l0,0l0,0
		C0.7,70.3,1.6,69.5,2.5,69.6L2.5,69.6z"/>
</g>
<circle class="st3" cx="7.6" cy="45.4" r="2.9"/>
<circle class="st4" cx="1.7" cy="40.6" r="0.9"/>
<circle class="st3" cx="115" cy="15.7" r="2.9"/>
<circle class="st4" cx="119.8" cy="9.3" r="0.9"/>
</svg>
