<?xml version="1.0" encoding="utf-8"?>
<!-- Generator: Adobe Illustrator 20.0.0, SVG Export Plug-In . SVG Version: 6.00 Build 0)  -->
<svg version="1.1" id="Layer_1" xmlns="http://www.w3.org/2000/svg" xmlns:xlink="http://www.w3.org/1999/xlink" x="0px" y="0px"
	 viewBox="0 0 250 164.7" style="enable-background:new 0 0 250 164.7;" xml:space="preserve">
<style type="text/css">
	.st0{fill:none;stroke:#FFFFFF;stroke-width:2;stroke-miterlimit:10;}
	.st1{fill:#FFFFFF;}
	.st2{fill:#43CEA2;}
	.st3{fill:#C252DD;}
	.st4{fill:#F4C33B;}
	.st5{font-family:'Roboto-Bold';}
	.st6{font-size:10px;}
	.st7{fill:none;stroke:#FFFFFF;stroke-width:2;stroke-linecap:round;stroke-miterlimit:10;}
	.st8{fill:none;stroke:#43CEA2;stroke-width:2;stroke-miterlimit:10;}
</style>
<title>img_hero</title>
<path class="st0" d="M75.8,59.2h115.5c2.8,0,5.1,2.3,5.1,5.1v75.9l0,0H70.6l0,0V64.4C70.6,61.5,72.9,59.2,75.8,59.2z"/>
<path class="st0" d="M55.8,140.3h155.4l0,0v1.9c0,4.5-3.7,8.2-8.2,8.2H64c-4.5,0-8.2-3.7-8.2-8.2L55.8,140.3L55.8,140.3L55.8,140.3z
	"/>
<path class="st0" d="M80.9,66.4h105.3c1.5,0,2.8,1.2,2.8,2.8l0,0v71.2l0,0H78.1l0,0V69.2C78.1,67.6,79.4,66.4,80.9,66.4z"/>
<line class="st0" x1="103.8" y1="66.4" x2="103.8" y2="140.3"/>
<path class="st1" d="M110.8,75.8h19c0.7,0,1.2,0.6,1.2,1.2v0c0,0.7-0.6,1.2-1.2,1.2h-19c-0.7,0-1.2-0.6-1.2-1.2v0
	C109.5,76.3,110.1,75.8,110.8,75.8z"/>
<path class="st1" d="M117.6,82.6h19c0.7,0,1.2,0.6,1.2,1.2l0,0c0,0.7-0.6,1.2-1.2,1.2h-19c-0.7,0-1.2-0.6-1.2-1.2l0,0
	C116.3,83.1,116.9,82.6,117.6,82.6z"/>
<path class="st1" d="M122.7,89.2h14c0.7,0,1.2,0.6,1.2,1.2v0c0,0.7-0.6,1.2-1.2,1.2h-14c-0.7,0-1.2-0.6-1.2-1.2v0
	C121.4,89.8,122,89.2,122.7,89.2z"/>
<path class="st1" d="M110.8,96.4h19c0.7,0,1.2,0.6,1.2,1.2v0c0,0.7-0.6,1.2-1.2,1.2h-19c-0.7,0-1.2-0.6-1.2-1.2v0
	C109.5,97,110.1,96.4,110.8,96.4z"/>
<path class="st1" d="M117.6,103.2H134c0.7,0,1.2,0.6,1.2,1.2v0c0,0.7-0.6,1.2-1.2,1.2h-16.4c-0.7,0-1.2-0.6-1.2-1.2v0
	C116.3,103.8,116.9,103.2,117.6,103.2z"/>
<path class="st1" d="M158.6,128.4h16.9c0.6,0,1,0.5,1,1v0.4c0,0.6-0.5,1-1,1h-16.9c-0.6,0-1-0.5-1-1v-0.4
	C157.6,128.8,158,128.4,158.6,128.4z"/>
<path class="st2" d="M117.6,109.9h9.1c0.7,0,1.2,0.6,1.2,1.2v0c0,0.7-0.6,1.2-1.2,1.2h-9.1c-0.7,0-1.2-0.6-1.2-1.2v0
	C116.3,110.4,116.9,109.9,117.6,109.9z"/>
<path class="st3" d="M141.6,82.6h9.1c0.7,0,1.2,0.6,1.2,1.2l0,0c0,0.7-0.6,1.2-1.2,1.2h-9.1c-0.7,0-1.2-0.6-1.2-1.2l0,0
	C140.3,83.1,140.9,82.6,141.6,82.6z"/>
<path class="st1" d="M86,75.8h9.1c0.7,0,1.2,0.6,1.2,1.2v0c0,0.7-0.6,1.2-1.2,1.2H86c-0.7,0-1.2-0.6-1.2-1.2v0
	C84.7,76.3,85.3,75.8,86,75.8z"/>
<path class="st1" d="M86,82.6h9.1c0.7,0,1.2,0.6,1.2,1.2l0,0c0,0.7-0.6,1.2-1.2,1.2H86c-0.7,0-1.2-0.6-1.2-1.2l0,0
	C84.7,83.1,85.3,82.6,86,82.6z"/>
<path class="st1" d="M86,89.2h9.1c0.7,0,1.2,0.6,1.2,1.2v0c0,0.7-0.6,1.2-1.2,1.2H86c-0.7,0-1.2-0.6-1.2-1.2v0
	C84.7,89.8,85.3,89.2,86,89.2z"/>
<path class="st1" d="M86,96.4h9.1c0.7,0,1.2,0.6,1.2,1.2v0c0,0.7-0.6,1.2-1.2,1.2H86c-0.7,0-1.2-0.6-1.2-1.2v0
	C84.7,97,85.3,96.4,86,96.4z"/>
<path class="st1" d="M86,103.2h9.1c0.7,0,1.2,0.6,1.2,1.2v0c0,0.7-0.6,1.2-1.2,1.2H86c-0.7,0-1.2-0.6-1.2-1.2v0
	C84.7,103.8,85.3,103.2,86,103.2z"/>
<path class="st4" d="M141.6,89.2h9.1c0.7,0,1.2,0.6,1.2,1.2v0c0,0.7-0.6,1.2-1.2,1.2h-9.1c-0.7,0-1.2-0.6-1.2-1.2v0
	C140.4,89.8,140.9,89.2,141.6,89.2z"/>
<path class="st2" d="M155.5,89.2h4.5c0.7,0,1.2,0.6,1.2,1.2v0c0,0.7-0.6,1.2-1.2,1.2h-4.5c-0.7,0-1.2-0.6-1.2-1.2v0
	C154.3,89.8,154.8,89.2,155.5,89.2z"/>
<path class="st2" d="M149.1,128.4h5c0.7,0,1.2,0.6,1.2,1.2v0c0,0.7-0.6,1.2-1.2,1.2h-5c-0.7,0-1.2-0.6-1.2-1.2v0
	C147.8,128.9,148.4,128.4,149.1,128.4z"/>
<path class="st4" d="M141.6,115.7h9.1c0.7,0,1.2,0.6,1.2,1.2v0c0,0.7-0.6,1.2-1.2,1.2h-9.1c-0.7,0-1.2-0.6-1.2-1.2v0
	C140.3,116.2,140.9,115.7,141.6,115.7z"/>
<path class="st3" d="M155.3,109.9h9.5c0.6,0,1,0.5,1,1v0.4c0,0.6-0.5,1-1,1h-9.5c-0.6,0-1-0.5-1-1v-0.4
	C154.3,110.3,154.7,109.9,155.3,109.9z"/>
<path class="st3" d="M135,128.4h9.1c0.7,0,1.2,0.6,1.2,1.2v0c0,0.7-0.6,1.2-1.2,1.2H135c-0.7,0-1.2-0.6-1.2-1.2v0
	C133.8,128.9,134.3,128.4,135,128.4z"/>
<path class="st1" d="M117.6,115.7h19c0.7,0,1.2,0.6,1.2,1.2v0c0,0.7-0.6,1.2-1.2,1.2h-19c-0.7,0-1.2-0.6-1.2-1.2v0
	C116.3,116.2,116.9,115.7,117.6,115.7z"/>
<path class="st1" d="M131.6,109.9h19c0.7,0,1.2,0.6,1.2,1.2v0c0,0.7-0.6,1.2-1.2,1.2h-19c-0.7,0-1.2-0.6-1.2-1.2v0
	C130.4,110.4,130.9,109.9,131.6,109.9z"/>
<path class="st1" d="M122.7,122.3h19c0.7,0,1.2,0.6,1.2,1.2v0c0,0.7-0.6,1.2-1.2,1.2h-19c-0.7,0-1.2-0.6-1.2-1.2v0
	C121.4,122.9,122,122.3,122.7,122.3z"/>
<path class="st1" d="M111,128.4h19c0.7,0,1.2,0.6,1.2,1.2v0c0,0.7-0.6,1.2-1.2,1.2h-19c-0.7,0-1.2-0.6-1.2-1.2v0
	C109.8,128.9,110.3,128.4,111,128.4z"/>
<path class="st0" d="M17.3,12.1h47.5c1.1,0,2,0.9,2,2V53c0,1.1-0.9,2-2,2H17.3c-1.1,0-2-0.9-2-2V14.1C15.3,13,16.2,12.1,17.3,12.1z"
	/>
<text transform="matrix(1 0 0 1 22.36 41.51)" class="st2 st5 st6">&lt;script&gt;</text>
<path class="st7" d="M73.7,35.9h53.1c3.9,0,7,4,7,8.8v7.6"/>
<line class="st0" x1="15.3" y1="22.9" x2="66.8" y2="22.9"/>
<circle class="st1" cx="21.6" cy="17.6" r="1.5"/>
<circle class="st1" cx="26.5" cy="17.6" r="1.5"/>
<circle class="st1" cx="31.3" cy="17.6" r="1.5"/>
<path class="st8" d="M207.5,61.4L207.5,61.4l1.7-0.5c1-0.3,1.6-1.3,1.3-2.3c0,0,0-0.1,0-0.1c-0.5-1.2-1-2.4-1.7-3.5
	c-0.5-0.9-1.7-1.2-2.6-0.7c-0.1,0-0.1,0.1-0.2,0.1l0,0c-0.8,0.6-1.9,0.4-2.5-0.3c-0.7-0.8-1.5-1.5-2.3-2.2c-0.8-0.6-0.9-1.7-0.4-2.5
	l0,0c0.6-0.9,0.3-2.1-0.5-2.6c0,0-0.1-0.1-0.1-0.1c-1.1-0.6-2.3-1.2-3.5-1.6c-1-0.4-2.1,0.2-2.4,1.1c0,0.1,0,0.1-0.1,0.2l0,0
	c-0.2,1-1.2,1.6-2.1,1.4c-1.1-0.2-2.1-0.2-3.2-0.2c-1,0-1.8-0.7-1.9-1.7l0,0c-0.1-1-1.1-1.8-2.1-1.7c-0.1,0-0.1,0-0.2,0
	c-1.2,0.2-2.5,0.6-3.7,1.1c-1,0.4-1.5,1.5-1.1,2.4c0,0.1,0,0.1,0.1,0.2l0,0c0.4,0.9,0.1,2-0.8,2.4c-0.9,0.6-1.8,1.2-2.6,1.9
	c-0.7,0.7-1.8,0.7-2.6,0l0,0c-0.8-0.7-2-0.7-2.7,0.1c0,0-0.1,0.1-0.1,0.1c-0.8,1-1.5,2-2.2,3.2c-0.5,0.9-0.2,2.1,0.7,2.6
	c0,0,0.1,0.1,0.2,0.1l0,0c0.9,0.4,1.3,1.4,1,2.4c-0.3,1-0.6,2-0.8,3.1c-0.1,1-1,1.7-2,1.6l0,0c-1-0.1-1.9,0.7-2,1.8
	c0,0.1,0,0.1,0,0.2c0,2,0.3,4,0.9,5.9l0,0l1.9-0.5c0.9-0.3,1.9,0.2,2.3,1.2c0.4,1,0.9,2,1.4,2.9c0.5,0.8,0.3,1.9-0.5,2.5l0,0
	c-0.8,0.6-1,1.8-0.4,2.7c0,0,0.1,0.1,0.1,0.1c0.9,1,1.8,1.9,2.8,2.7c0.8,0.6,2,0.5,2.6-0.3c0,0,0.1-0.1,0.1-0.1l0,0
	c0.6-0.8,1.6-1.1,2.5-0.6c0.9,0.5,1.9,0.9,2.9,1.3c0.9,0.3,1.5,1.3,1.2,2.2l0,0c-0.3,1,0.3,2,1.3,2.3c0.1,0,0.1,0,0.2,0
	c1.3,0.2,2.6,0.3,3.9,0.3c1,0,1.9-0.9,1.9-1.9c0-0.1,0-0.1,0-0.2l0,0c-0.1-0.9,0.6-1.8,1.5-2c0.5-0.1,1-0.2,1.6-0.4
	c0.5-0.1,1.1-0.3,1.6-0.6c0.9-0.3,1.9,0.1,2.3,0.9l0,0c0.5,0.9,1.6,1.3,2.5,0.9c0.1,0,0.1-0.1,0.2-0.1c1.1-0.7,2.1-1.4,3.1-2.3
	c0.8-0.7,0.9-1.9,0.2-2.7c0,0-0.1-0.1-0.1-0.1l0,0c-0.7-0.7-0.8-1.8-0.1-2.6c0.7-0.8,1.3-1.7,1.8-2.7c0.5-0.9,1.5-1.2,2.4-0.8l0,0
	c0.9,0.4,2,0,2.5-0.9c0,0,0-0.1,0.1-0.1c0.4-1.2,0.8-2.5,1-3.8c0.2-1-0.5-2-1.5-2.2c-0.1,0-0.1,0-0.2,0l0,0c-1-0.1-1.7-0.9-1.8-1.9
	C208.3,64.7,208,63,207.5,61.4z M194.7,80.7c-7.7,3.1-16.5-0.7-19.6-8.4s0.7-16.5,8.4-19.6c7.7-3.1,16.5,0.7,19.6,8.4
	c0.4,1,0.7,1.9,0.8,3C205.2,71.1,201.3,78.1,194.7,80.7z"/>
<ellipse transform="matrix(0.9889 -0.1487 0.1487 0.9889 -14.6598 6.5257)" class="st8" cx="36.3" cy="101.3" rx="3.2" ry="3.2"/>
<ellipse transform="matrix(0.9887 -0.1498 0.1498 0.9887 -10.7436 9.0189)" class="st2" cx="54.5" cy="75.8" rx="2.2" ry="2.2"/>
<ellipse transform="matrix(0.9887 -0.1498 0.1498 0.9887 -1.6069 16.6579)" class="st2" cx="109.8" cy="19" rx="1.8" ry="1.8"/>
<ellipse transform="matrix(0.9889 -0.1487 0.1487 0.9889 -11.9852 32.4718)" class="st2" cx="211.2" cy="96.4" rx="2.1" ry="2.1"/>
<ellipse transform="matrix(0.9889 -0.1487 0.1487 0.9889 -1.3869 27.271)" class="st2" cx="181.7" cy="22.9" rx="2.1" ry="2.1"/>
<ellipse transform="matrix(0.7071 -0.7071 0.7071 0.7071 -15.8834 189.191)" class="st8" cx="220.4" cy="113.8" rx="3.1" ry="3.1"/>
<circle class="st8" cx="219.7" cy="43.1" r="3"/>
<path class="st2" d="M154.7,33.5l-0.4,1.4c-0.1,0.2,0,0.5,0.2,0.6l1.2,0.8c0.2,0.2,0.3,0.6,0.1,0.8c-0.1,0.2-0.3,0.2-0.5,0.2
	l-1.4-0.3c-0.2-0.1-0.5,0-0.6,0.2l-0.8,1.2c-0.2,0.2-0.6,0.3-0.8,0.1c-0.2-0.1-0.2-0.3-0.2-0.5l0.4-1.4c0.1-0.2,0-0.5-0.2-0.6
	l-1.2-0.8c-0.2-0.2-0.3-0.6-0.1-0.8c0.1-0.2,0.3-0.2,0.5-0.2l1.4,0.4c0.2,0.1,0.5,0,0.6-0.2l0.8-1.2c0.2-0.2,0.6-0.3,0.8-0.1
	C154.6,33.1,154.7,33.3,154.7,33.5z"/>
<path class="st2" d="M96.1,45.3l-0.8,1.1c-0.1,0.2-0.1,0.4,0,0.6l0.8,1.1c0.2,0.2,0.2,0.6-0.1,0.8c-0.2,0.2-0.5,0.2-0.7,0l-1.1-0.8
	c-0.2-0.1-0.4-0.1-0.6,0L92.5,49c-0.2,0.2-0.6,0.2-0.8-0.1c-0.2-0.2-0.2-0.5,0-0.7l0.8-1.1c0.1-0.2,0.1-0.4,0-0.6l-0.8-1.1
	c-0.2-0.2-0.2-0.6,0.1-0.8c0.2-0.2,0.5-0.2,0.7,0l1.1,0.8c0.2,0.1,0.4,0.1,0.6,0l1.1-0.8c0.3-0.1,0.6-0.1,0.7,0.2
	C96.1,44.9,96.1,45.1,96.1,45.3z"/>
<path class="st2" d="M26.2,77.8L25.3,79c-0.1,0.2-0.1,0.5,0,0.7l0.9,1.2c0.2,0.2,0.2,0.6-0.1,0.8c-0.2,0.2-0.5,0.2-0.7,0l-1.2-0.8
	c-0.2-0.1-0.5-0.1-0.7,0l-1.2,0.9c-0.2,0.2-0.6,0.2-0.8-0.1c-0.2-0.2-0.2-0.5,0-0.7l0.8-1.2c0.1-0.2,0.1-0.5,0-0.7l-0.9-1.2
	c-0.2-0.2-0.2-0.6,0.1-0.8c0.2-0.2,0.5-0.2,0.7,0l1.2,0.8c0.2,0.1,0.5,0.1,0.7,0l1.2-0.9c0.2-0.2,0.6-0.2,0.8,0.1
	C26.3,77.3,26.3,77.6,26.2,77.8z"/>
<path class="st2" d="M56.2,117.4l-1.3,0.6c-0.2,0.1-0.4,0.3-0.3,0.6l0.1,1.4c0,0.3-0.2,0.6-0.5,0.6c-0.3,0-0.5-0.1-0.6-0.4l-0.5-1.4
	c-0.1-0.2-0.3-0.4-0.6-0.4l-1.5,0.1c-0.3,0-0.6-0.2-0.6-0.5c0-0.3,0.1-0.5,0.4-0.6L52,117c0.2-0.1,0.4-0.3,0.3-0.6l-0.1-1.4
	c0-0.3,0.2-0.6,0.5-0.6c0.3,0,0.5,0.1,0.6,0.4l0.5,1.4c0.1,0.2,0.3,0.4,0.6,0.4l1.5-0.1c0.3,0,0.5,0.3,0.5,0.6
	C56.4,117.1,56.3,117.3,56.2,117.4z"/>
<path class="st2" d="M233.9,77.7l-1.2,0.8c-0.2,0.1-0.3,0.4-0.2,0.6l0.4,1.4c0,0.3-0.2,0.6-0.5,0.6c-0.2,0-0.4,0-0.5-0.2l-0.8-1.2
	c-0.1-0.2-0.4-0.3-0.6-0.2l-1.4,0.3c-0.3,0-0.6-0.2-0.6-0.5c0-0.2,0-0.4,0.2-0.5l1.2-0.8c0.2-0.1,0.3-0.4,0.2-0.6l-0.4-1.4
	c0-0.3,0.2-0.6,0.5-0.6c0.2,0,0.4,0,0.5,0.2l0.8,1.2c0.1,0.2,0.4,0.3,0.6,0.2l1.4-0.3c0.3,0,0.6,0.2,0.6,0.5
	C234.1,77.4,234,77.6,233.9,77.7z"/>
</svg>
