<?xml version="1.0" encoding="utf-8"?>
<!-- Generator: Adobe Illustrator 20.0.0, SVG Export Plug-In . SVG Version: 6.00 Build 0)  -->
<svg version="1.1" id="Layer_1" xmlns="http://www.w3.org/2000/svg" xmlns:xlink="http://www.w3.org/1999/xlink" x="0px" y="0px"
	 viewBox="0 0 120.9 75.5" style="enable-background:new 0 0 120.9 75.5;" xml:space="preserve">
<style type="text/css">
	.st0{fill:#0044FF;}
	.st1{fill:#F0F0F7;}
	.st2{fill:#D7D9E2;}
	.st3{fill:#43CEA2;}
	.st4{fill:#2F65F2;}
	.st5{fill:#C252DD;}
	.st6{fill:#F4C33B;}
</style>
<path class="st0" d="M98.6,69.7H22.8c-3.4,0-6.1-2.8-6.1-6.2V12.7c0-3.5,2.7-6.2,6.1-6.2h75.8c3.4,0,6.1,2.8,6.1,6.2v50.7
	C104.6,66.8,101.9,69.7,98.6,69.7z"/>
<path class="st1" d="M95.6,66H25.6c-3.1,0-5.6-2.4-5.6-5.5V15.2c0-3.1,2.5-5.5,5.6-5.5h69.9c3.1,0,5.6,2.4,5.6,5.5v45.2
	C101.2,63.3,98.7,66,95.6,66z"/>
<g id="table">
	<path class="st2" d="M2.5,69.6H118c1,0,1.8,0.7,1.8,1.7l0,0l0,0c0,1-0.8,1.7-1.8,1.7l0,0H2.5c-1,0-1.8-0.7-1.8-1.7l0,0l0,0
		C0.7,70.3,1.6,69.5,2.5,69.6L2.5,69.6z"/>
</g>
<title>laptop-icon</title>
<path class="st0" d="M94.8,24.1h17.4c3.2,0,5.7,2.6,5.7,5.7l0,0v39.3c0,3.2-2.6,5.7-5.7,5.8l0,0H94.8c-3.2,0-5.7-2.6-5.8-5.7l0,0
	V29.8c0-3.1,2.5-5.7,5.6-5.8C94.7,24.1,94.8,24.1,94.8,24.1z"/>
<path class="st1" d="M94.4,26.6h18.2c1.8,0,3.3,1.5,3.3,3.3v39c0,1.8-1.5,3.3-3.3,3.3H94.4c-1.8,0-3.3-1.5-3.3-3.3v-39
	C91.1,28.3,92.6,26.7,94.4,26.6z"/>
<path class="st3" d="M96.8,61.4H110c1,0,1.8,0.9,1.7,1.8l0,0c0,1-0.8,1.8-1.8,1.8l0,0H96.8c-1,0-1.8-0.9-1.8-1.8l0,0l0,0
	C95,62.3,95.8,61.4,96.8,61.4L96.8,61.4z"/>
<circle class="st4" cx="103.5" cy="68.8" r="1.7"/>
<path class="st5" d="M35,18.8h10c1.3,0,2.3,1,2.3,2.3l0,0v10c0,1.3-1,2.3-2.3,2.3l0,0H35c-1.3,0-2.3-1-2.3-2.3l0,0v-10
	C32.7,19.8,33.7,18.8,35,18.8L35,18.8z"/>
<path class="st0" d="M54.8,18.8h10c1.3,0,2.3,1,2.3,2.3l0,0v10c0,1.3-1,2.3-2.3,2.3l0,0h-10c-1.3,0-2.3-1-2.3-2.3l0,0v-10
	c0-1.2,0.9-2.2,2.1-2.3C54.7,18.8,54.8,18.8,54.8,18.8z"/>
<path class="st3" d="M74.7,19.2h10c1.3,0,2.3,1,2.3,2.3l0,0v10c0,1.3-1,2.3-2.3,2.3l0,0h-10c-1.3,0-2.3-1-2.3-2.3l0,0v-10
	C72.6,20.3,73.6,19.2,74.7,19.2L74.7,19.2z"/>
<path class="st3" d="M35,38.2h10c1.3,0,2.3,1,2.3,2.3l0,0v10c0,1.3-1,2.3-2.3,2.3l0,0H35c-1.3,0-2.3-1-2.3-2.3l0,0v-10
	C32.7,39.2,33.7,38.2,35,38.2L35,38.2z"/>
<path class="st6" d="M94.3,26.6h18.3c1.8,0,3.2,1.7,3.2,3.5v16.7H91.1V30.2C91.1,28.3,92.5,26.6,94.3,26.6z"/>
<path class="st6" d="M54.8,38.2h10c1.3,0,2.3,1,2.3,2.3l0,0v10c0,1.3-1,2.3-2.3,2.3l0,0h-10c-1.3,0-2.3-1-2.3-2.3l0,0v-10
	c0-1.2,0.9-2.2,2.1-2.3C54.7,38.2,54.8,38.2,54.8,38.2z"/>
<path class="st5" d="M74.6,38.2h10c1.3,0,2.3,1,2.3,2.3l0,0v10c0,1.3-1,2.3-2.3,2.3l0,0h-10c-1.3,0-2.3-1-2.3-2.3l0,0v-10
	C72.5,39.2,73.4,38.2,74.6,38.2L74.6,38.2z"/>
<rect x="95" y="50.4" class="st4" width="11.4" height="1"/>
<rect x="95" y="52.7" class="st4" width="18.4" height="1"/>
<rect x="95" y="55" class="st4" width="18.4" height="1"/>
<rect x="95" y="57.1" class="st4" width="18.4" height="1"/>
<circle class="st5" cx="7.6" cy="35.4" r="2.9"/>
<circle class="st6" cx="1.7" cy="30.6" r="0.9"/>
<circle class="st5" cx="115" cy="15.7" r="2.9"/>
<circle class="st6" cx="119.8" cy="9.3" r="0.9"/>
<path class="st0" d="M54.1,59.1h13.2c1,0,1.8,0.9,1.7,1.8l0,0c0,1-0.8,1.8-1.8,1.8l0,0H54.1c-1,0-1.8-0.9-1.8-1.8l0,0l0,0
	C52.2,59.9,53,59.1,54.1,59.1L54.1,59.1z"/>
</svg>
