<?xml version="1.0" encoding="utf-8"?>
<!-- Generator: Adobe Illustrator 20.0.0, SVG Export Plug-In . SVG Version: 6.00 Build 0)  -->
<svg version="1.1" id="Layer_1" xmlns="http://www.w3.org/2000/svg" xmlns:xlink="http://www.w3.org/1999/xlink" x="0px" y="0px"
	 viewBox="0 0 120.9 75.5" style="enable-background:new 0 0 120.9 75.5;" xml:space="preserve">
<style type="text/css">
	.st0{fill:#C252DD;}
	.st1{fill:#F4C33B;}
	.st2{fill:none;}
	.st3{fill:#43CEA2;}
	.st4{fill:#EFC9A3;}
	.st5{opacity:0.1;fill:#B2837D;enable-background:new    ;}
	.st6{fill:#F7D5B7;}
	.st7{fill:#0044FF;}
	.st8{fill:#034CEF;}
	.st9{opacity:0.3;fill:#B2837D;enable-background:new    ;}
	.st10{opacity:0.4;}
	.st11{fill:#B2837D;}
	.st12{opacity:0.9;fill:#0044FF;enable-background:new    ;}
	.st13{fill:#FFFFFF;}
	.st14{fill:#D7D9E2;}
</style>
<title>students-icon</title>
<circle class="st0" cx="7.6" cy="45.4" r="2.9"/>
<circle class="st1" cx="1.7" cy="40.6" r="0.9"/>
<circle class="st0" cx="115" cy="15.7" r="2.9"/>
<circle class="st1" cx="119.8" cy="9.3" r="0.9"/>
<g id="Layer_4">
	<path class="st2" d="M22,65.6l0.3-0.3l0.6-0.6l0.6-0.6l0.6-0.5l0.3-0.3c0-3.9-0.4-7.7-1.2-11.5c-0.4,0.2-0.8,0.4-1.2,0.6L22,65.6
		L22,65.6L22,65.6z"/>
</g>
<path class="st3" d="M110.4,65.3L108,50.8c-0.6-3.8-3.1-7.1-6.6-8.6c-1.7-0.7-3.5-1.3-5.3-1.7c-1.5-0.5-3-0.8-4.5-1
	c-2-0.3-3.9-0.4-5.9-0.3l0,0c-1.9-0.1-3.7,0-5.6,0.3c-3.3,0.4-6.5,1.3-9.5,2.5c-3.6,1.6-6.1,4.8-6.6,8.7l-2.4,14.6
	c-0.4,2.5,0.5,5,2.6,6.6c0.8,0.6,1.7,1,2.7,1L88,72.8l16.8,0.1h0.3c1-0.1,1.9-0.4,2.7-1C109.9,70.3,110.9,67.8,110.4,65.3z"/>
<path class="st4" d="M94.5,40c-4.4-2.2-3.1-8.8-3-10.3c0.1-0.3-0.1-0.6-0.5-0.7c0,0,0,0-0.1,0h-0.1L86,32.3h-0.6l-3.2,0.1
	c-0.3,0-0.6,0.3-0.6,0.6v0.1c0.3,1.4,0.3,4.6-4,7.1c-0.3,0.2-0.4,0.5-0.2,0.8c0.1,0.1,0.2,0.2,0.3,0.3c2.5,1.3,5.2,1.9,8,1.7h0.6
	c2.8,0,5.5-0.7,8-2c0.3-0.1,0.4-0.5,0.3-0.8C94.7,40.1,94.6,40,94.5,40L94.5,40z"/>
<ellipse transform="matrix(0.3216 -0.9469 0.9469 0.3216 43.203 92.4116)" class="st1" cx="86.1" cy="16.1" rx="13.6" ry="10.9"/>
<path class="st5" d="M91.6,29.7l-5.1,3.5h-0.7l-4-0.3c0.2,0.9,0.2,1.8,0,2.7c3.6-0.4,7.1-2,9.6-4.6C91.5,30.2,91.6,29.7,91.6,29.7z"
	/>
<path class="st6" d="M95.3,21.9c-0.5,7.4-8.8,12.9-14.6,12.6c-3.6-0.2-6.3-5.9-5.8-13.3s5-13.9,10.8-13.5
	C91.5,8.1,95.8,14.4,95.3,21.9z"/>
<ellipse transform="matrix(0.5857 -0.8106 0.8106 0.5857 21.0841 86.3745)" class="st6" cx="95" cy="22.6" rx="3.6" ry="2.2"/>
<path class="st1" d="M79.4,6.4c-0.2,3.2,2.4,5.5,6.5,5.8s8.2-1.6,8.4-4.8s-2-5.4-6.1-5.7S79.6,3.2,79.4,6.4z"/>
<path class="st1" d="M75.4,10.4c0.8,2.4,3.1,1.8,5.3,0.6s3.8-4.1,2.8-5.9s-4.2-1.7-5.9,0C76.2,6.4,74.8,8.5,75.4,10.4z"/>
<path class="st1" d="M89.3,7.5c-0.8,2.1,0.5,4.4,3,6c2.3,1.5,4.8,2.4,5.9,0c1-2,0.7-6.3-2.5-7.8C93.1,4.5,90.2,5.5,89.3,7.5z"/>
<path class="st7" d="M89.5,18.2c-2.2-0.4-4.2,0.2-4.5,2.2c-0.6,2.2,0.7,4.4,2.8,5s4.4-0.7,5-2.8c0.1-0.3,0.2-0.6,0.2-0.9
	C93.2,19.8,91.7,18.6,89.5,18.2z M88.3,25c-2.2-0.4-3.3-2.5-3-4.5c0.3-1.8,2.1-2.3,4.1-2s3.5,1.5,3.2,3.2
	C92.3,23.7,90.6,25.3,88.3,25z"/>
<path class="st7" d="M75.3,18.2c-0.6,2.2,0.6,4.4,2.8,5.1s4.4-0.6,5.1-2.8c0-0.2,0.1-0.3,0.1-0.5c0.5-1.9-1.1-3.3-3.3-3.8
	S75.8,16.2,75.3,18.2z M75.7,18.3c0.4-1.8,2.2-2.2,4.2-1.7s3.4,1.7,3,3.4c-0.4,2-2.3,3.3-4.3,2.9s-3.3-2.3-2.9-4.3
	C75.7,18.4,75.7,18.4,75.7,18.3z"/>
<path class="st7" d="M83,18.4c0.7,0.8,1.9,1,2.9,0.6l-0.7,1.1c-0.5-0.5-1.3-0.7-2-0.4C83.3,19.8,83,18.4,83,18.4z"/>
<path class="st8" d="M34.7,5.1L34.7,5.1C42,4.9,48.2,10.6,48.5,18l0.8,23.1c0.3,7.4-5.5,13.6-12.9,13.8l0,0l0,0
	C29,55.2,22.8,49.4,22.6,42l0,0l-0.8-23C21.5,11.6,27.2,5.4,34.7,5.1C34.6,5.1,34.7,5.1,34.7,5.1z"/>
<path class="st1" d="M59.1,67.4l-3.1-19c-0.1-0.6-0.4-1.1-0.8-1.4c-1.5-1.2-5.6-3.9-13.6-5c-1.8-0.2-3.7-0.3-5.5-0.3l0,0
	c-1.7-0.1-3.5,0-5.2,0.3c-8,1.1-12.1,3.8-13.6,5c-0.4,0.4-0.7,0.9-0.8,1.4l-3.1,18.9c0,0.3,0,0.5,0,0.8c0.4,2.3,3,4.7,5.2,4.7
	l19.8-0.1L54,72.9c2.2,0,4.7-2.4,5.2-4.7C59.2,67.9,59.2,67.6,59.1,67.4z"/>
<path class="st4" d="M44,42.4c-4.2-2.1-4.4-5.4-4.3-6.7c0-0.3-0.2-0.6-0.5-0.6h-0.1l-3,0.1h-0.6l-3,0.1c-0.3,0-0.6,0.3-0.6,0.6V36
	c0.3,1.3,0.3,4.4-3.8,6.7c-0.3,0.2-0.3,0.5-0.2,0.8c0.1,0.1,0.1,0.1,0.2,0.2c1,0.4,3.1,0.9,7.5,0.8h0.6c4.3,0,6.5-0.6,7.6-1
	c0.3-0.2,0.4-0.5,0.2-0.8C44.1,42.6,44.1,42.5,44,42.4L44,42.4z"/>
<path class="st5" d="M39.7,35.4l-3.6,0.1h-0.6l-3.7,0.1c0.1,0.4,0.2,0.9,0.2,1.3c1.1,1,2.4,1.6,3.9,1.8c1.5-0.3,2.8-1,3.7-2.1
	C39.6,35.5,39.7,35.4,39.7,35.4z"/>
<path class="st6" d="M45.8,23.5c0.2,6.6-6.3,13.8-9.9,13.9c-4,0.1-10.7-6.5-10.9-13.2s4.8-13.2,9.9-13.4S45.5,16.9,45.8,23.5z"/>
<ellipse transform="matrix(0.3939 -0.9191 0.9191 0.3939 5.0146 57.0212)" class="st6" cx="45.7" cy="24.7" rx="2.3" ry="1"/>
<ellipse transform="matrix(0.9191 -0.3939 0.3939 0.9191 -7.7113 11.8475)" class="st6" cx="25" cy="24.7" rx="1" ry="2.3"/>
<path class="st9" d="M38.3,30.8c-0.7,1.5-2.5,2.2-4.1,1.5c-0.6-0.3-1.2-0.8-1.5-1.5c0.9,0.3,1.8,0.5,2.7,0.4
	C36.4,31.2,37.4,31.1,38.3,30.8z"/>
<path class="st0" d="M38.6,30.4c-0.8,1.7-2.8,2.4-4.5,1.6c-0.7-0.3-1.3-0.9-1.6-1.6c1,0.3,2,0.5,3,0.5
	C36.6,30.9,37.6,30.7,38.6,30.4z"/>
<path class="st0" d="M37.2,30.8c0,0.2-0.7,0.5-1.5,0.5s-1.5-0.2-1.5-0.5s0.7-0.5,1.5-0.5S37.2,30.6,37.2,30.8z"/>
<path class="st0" d="M32.5,30.4l1.8,0.8c1.3,0,1.3-0.6,1.3-0.9s-0.7-0.7-1.5-0.4L32.5,30.4z"/>
<path class="st0" d="M38.6,30.4l-1.9,0.8c-1.4-0.1-1.3-0.6-1.2-1s0.8-0.7,1.7-0.3L38.6,30.4z"/>
<g class="st10">
	<path class="st11" d="M85.1,29.9c-1,0.4-2.2,0.4-3.2,0.1c-1.1-0.1-2-0.7-2.7-1.5c0.9,0.4,1.9,0.7,2.8,0.9
		C83,29.6,84.1,29.8,85.1,29.9z"/>
	<path class="st11" d="M79.2,28.4l1.7,0.8c1.3,0.3,1.6,0,1.5-0.2s-0.8-0.4-1.6-0.5L79.2,28.4z"/>
	<path class="st11" d="M85.1,29.9h-1.9c-1.7-0.4-1.6-0.6-1.4-0.9s1.2,0,2,0.3L85.1,29.9z"/>
</g>
<g id="laptops">
	<path class="st8" d="M56.3,66.8H42.5c0,0.3-0.3,0.5-0.5,0.4H30.8c-0.3,0-0.5-0.2-0.5-0.4H16.4c0,0.1,0,0.1,0,0.2v0.5
		c0.1,1,0.9,1.7,1.8,1.9h36.3c0.9-0.2,1.7-0.9,1.8-1.9V67C56.4,66.9,56.3,66.9,56.3,66.8z"/>
	<path class="st12" d="M49.7,68.5H22.9c-2,0-3.7-1.7-3.7-3.7l0,0l-0.6-15.6c0-2,1.7-3.7,3.7-3.7l0,0h27.9c2,0,3.7,1.7,3.7,3.7l0,0
		l-0.6,15.6C53.4,66.9,51.7,68.5,49.7,68.5L49.7,68.5z"/>
	<path class="st8" d="M103.9,67.1H90.1c0,0.3-0.3,0.5-0.6,0.4H78.3c-0.3,0-0.5-0.2-0.6-0.4H64c0,0.1,0,0.1,0,0.2v0.5
		c0.1,0.9,0.9,1.7,1.8,1.6h36.3c0.9,0.1,1.8-0.7,1.8-1.6v-0.5C103.9,67.2,103.9,67.1,103.9,67.1z"/>
	<path class="st12" d="M97.3,68.5H70.5c-2,0-3.7-1.7-3.7-3.7l-0.6-15.6c0-2,1.7-3.7,3.7-3.7h27.9c2,0,3.7,1.7,3.7,3.7l0,0L101,64.8
		C101,66.8,99.3,68.5,97.3,68.5L97.3,68.5z"/>
	<circle class="st13" cx="83.9" cy="56.5" r="1.5"/>
	<circle class="st13" cx="36.4" cy="56.2" r="1.5"/>
</g>
<g id="table">
	<path class="st14" d="M2.5,69.6H118c1,0,1.8,0.7,1.8,1.7l0,0l0,0c0,1-0.8,1.7-1.8,1.7l0,0H2.5c-1,0-1.8-0.7-1.8-1.7l0,0l0,0
		C0.7,70.3,1.6,69.5,2.5,69.6L2.5,69.6z"/>
</g>
<path class="st7" d="M96.4,19.3c0-0.1-0.1-0.1-0.1-0.1l0,0l0,0l-3.5,1.3v0.6L96.4,19.3C96.4,19.4,96.4,19.4,96.4,19.3z"/>
</svg>
